<?xml version="1.0" standalone="no"?>
<!DOCTYPE svg PUBLIC "-//W3C//DTD SVG 20010904//EN"
 "http://www.w3.org/TR/2001/REC-SVG-20010904/DTD/svg10.dtd">
<svg version="1.0" xmlns="http://www.w3.org/2000/svg"
 width="581.000000pt" height="581.000000pt" viewBox="0 0 581.000000 581.000000"
 preserveAspectRatio="xMidYMid meet">

<g transform="translate(0.000000,581.000000) scale(0.100000,-0.100000)"
fill="#000000" stroke="none">
<path d="M2460 4090 l0 -1720 94 0 93 0 6 273 c9 389 38 570 133 819 40 106
53 134 202 440 123 251 145 297 179 383 164 407 135 673 -107 985 -66 84 -75
95 -195 217 -179 181 -344 323 -377 323 l-28 0 0 -1720z"/>
<path d="M1865 5587 c-33 -13 -87 -39 -120 -58 -33 -20 -78 -45 -100 -56 -95
-48 -162 -87 -196 -114 -20 -16 -40 -29 -44 -29 -5 0 -27 -16 -51 -35 -23 -19
-46 -35 -51 -35 -4 0 -39 -25 -78 -55 -38 -31 -95 -73 -125 -94 -95 -67 -430
-408 -511 -521 -21 -30 -43 -60 -48 -66 -4 -5 -13 -20 -20 -31 -6 -12 -17 -28
-25 -36 -26 -25 -157 -249 -221 -377 -113 -226 -205 -522 -252 -810 -28 -175
-25 -587 5 -760 12 -69 22 -128 22 -132 0 -5 428 -8 950 -8 l950 0 0 1620 c0
1290 -3 1620 -12 1619 -7 0 -40 -10 -73 -22z"/>
<path d="M4513 3915 c-257 -56 -485 -195 -743 -455 -119 -120 -206 -216 -223
-246 -4 -8 -13 -14 -20 -14 -7 -1 -29 -24 -50 -53 -20 -29 -49 -66 -65 -84
-15 -17 -43 -52 -62 -78 -19 -25 -48 -63 -65 -85 -16 -21 -46 -61 -65 -87 -19
-26 -37 -50 -40 -53 -3 -3 -28 -36 -55 -75 -27 -38 -51 -72 -55 -75 -3 -3 -14
-18 -24 -35 -11 -16 -23 -34 -28 -40 -51 -64 -78 -110 -78 -131 l0 -26 100 4
99 3 38 38 c22 20 43 37 47 37 5 0 28 17 52 38 48 42 93 78 134 107 15 11 62
47 105 80 43 33 85 65 94 70 10 6 35 25 58 43 22 17 44 32 47 32 4 0 31 18 60
40 29 22 56 40 61 40 4 0 29 16 55 35 26 19 53 35 60 35 6 0 25 10 42 21 16
12 82 44 146 72 l117 51 140 1 c138 0 141 0 189 -30 26 -16 57 -35 68 -41 65
-38 184 -185 266 -330 76 -133 194 -385 188 -401 -12 -29 44 -12 86 27 24 22
47 40 51 40 10 0 83 54 156 115 27 22 64 51 82 65 58 44 185 176 226 235 142
203 135 404 -20 610 -50 66 -205 225 -219 225 -6 0 -29 16 -52 35 -24 19 -46
35 -50 35 -4 0 -26 13 -49 29 -99 67 -286 139 -462 176 -86 18 -259 18 -342 0z"/>
<path d="M2460 969 c0 -885 1 -943 18 -955 9 -7 24 -14 33 -14 23 0 148 58
186 86 17 13 34 24 37 24 19 0 116 129 143 192 14 31 19 33 168 47 61 6 139
20 175 31 36 11 71 20 79 20 12 0 51 21 136 73 31 19 147 108 174 134 13 13
30 23 38 23 8 0 13 6 11 13 -3 6 -49 22 -104 35 -333 77 -527 169 -641 303
-110 130 -186 319 -247 619 l-23 115 888 3 889 2 0 95 0 95 -980 0 -980 0 0
-941z"/>
<path d="M220 1865 c0 -26 93 -221 148 -310 17 -27 48 -79 68 -115 20 -36 47
-77 58 -91 12 -14 30 -38 41 -53 109 -154 150 -201 350 -401 123 -124 299
-269 415 -345 22 -14 71 -47 110 -75 39 -27 92 -62 118 -76 48 -26 173 -93
227 -121 58 -30 165 -78 175 -78 7 0 10 299 10 845 l0 845 -860 0 -860 0 0
-25z"/>
</g>
</svg>
